<svg version="1.1" id="Layer_1" xmlns="http://www.w3.org/2000/svg" xmlns:xlink="http://www.w3.org/1999/xlink" x="0px" y="0px"
	 width="100%" viewBox="0 0 576 1024" enable-background="new 0 0 576 1024" xml:space="preserve">
<path fill="#000000" opacity="1.000000" stroke="none" 
	d="
M363.375488,577.632080 
	C377.707367,594.237976 391.803528,610.580444 405.703583,626.695557 
	C404.441986,629.415283 402.563995,628.984131 401.018829,628.992859 
	C390.691040,629.050964 380.361786,628.933350 370.035095,629.052795 
	C366.804688,629.090210 364.825195,627.453674 362.880890,625.237488 
	C344.207672,603.953064 325.497772,582.700745 306.773804,561.460815 
	C305.701477,560.244385 304.860443,558.716187 302.518890,557.956848 
	C302.128876,564.844604 301.825226,571.568848 300.216370,578.151611 
	C294.749878,600.518311 280.108521,615.562744 261.385986,627.430725 
	C259.190216,628.822632 256.727722,629.060913 254.183380,629.056946 
	C233.859253,629.025024 213.534149,629.134949 193.211441,628.959534 
	C186.389862,628.900696 179.643021,627.614563 172.967026,626.192139 
	C170.851074,625.741211 168.450531,625.093445 168.817596,622.164795 
	C169.552521,616.300903 169.518234,610.292847 171.484894,604.741943 
	C173.885437,604.079590 175.266251,605.562988 176.828354,606.371094 
	C189.720673,613.040283 203.390579,615.735901 217.870224,614.863098 
	C221.375092,614.651794 221.798553,612.903564 221.925522,610.041748 
	C222.840927,589.410889 222.687363,568.769226 222.696106,548.129456 
	C222.714951,503.648193 222.700378,459.166901 222.686737,414.685638 
	C222.684616,407.746826 222.364716,407.457520 215.307281,407.388397 
	C213.474884,407.370483 211.637939,407.303040 209.810562,407.399780 
	C206.440811,407.578186 203.980011,407.105652 203.975449,402.727997 
	C203.970932,398.404633 205.675491,396.931549 209.948273,396.947937 
	C238.935547,397.059326 267.923706,397.040741 296.911041,396.926849 
	C301.049225,396.910583 302.396545,398.450409 302.350616,402.540405 
	C302.173096,418.365112 302.276123,434.192902 302.274658,450.019562 
	C302.274475,451.815063 302.274628,453.610565 302.274628,456.449402 
	C308.693329,452.420135 313.166351,447.522583 318.070740,443.214447 
	C334.335358,428.927338 350.449860,414.469482 366.677063,400.139526 
	C373.040314,394.520294 380.431061,397.692230 387.337372,397.163635 
	C388.044464,400.133362 386.231476,400.820801 385.071716,401.847412 
	C359.136292,424.804474 333.224762,447.788849 307.195282,470.638855 
	C303.665161,473.737793 301.827301,476.982452 302.178925,481.827820 
	C302.587830,487.462250 302.650238,493.182373 302.163055,498.804626 
	C301.656616,504.648895 303.932953,508.825378 307.643951,513.071716 
	C326.274017,534.389160 344.664917,555.915588 363.375488,577.632080 
M260.107941,437.500000 
	C260.107941,456.018982 260.107941,474.537933 260.107941,493.056915 
	C264.755280,490.575714 267.900909,487.649841 271.270508,485.009766 
	C274.402527,482.555786 275.735260,479.699158 275.662415,475.596008 
	C275.313568,455.948975 275.223816,436.297028 275.101959,416.646423 
	C275.043243,407.173309 275.103058,407.323395 265.383057,407.317352 
	C261.521271,407.314972 260.004425,408.580414 260.094482,412.515045 
	C260.277283,420.505951 260.123627,428.504578 260.107941,437.500000 
M265.206543,602.666870 
	C269.524567,594.311035 272.170044,585.418335 273.844879,576.191650 
	C276.454773,561.814026 274.436340,547.268188 275.501251,532.827881 
	C276.029205,525.668518 268.476837,514.861816 260.811310,511.564697 
	C260.811310,544.062012 260.811310,576.266174 260.811310,609.569641 
	C262.542999,606.884644 263.699860,605.090942 265.206543,602.666870 
z"/>
<path fill="#000000" opacity="1.000000" stroke="none" 
	d="
M219.213928,581.522705 
	C219.251587,585.798401 219.362686,589.630066 219.227509,593.453064 
	C218.999863,599.890686 214.153976,604.039673 207.866196,602.760071 
	C204.132690,602.000366 200.988815,602.145081 197.363190,603.696777 
	C192.604279,605.733459 187.562210,605.315918 183.384598,601.515137 
	C182.892639,601.067566 182.477798,600.287292 181.930588,600.186707 
	C176.323898,599.155457 174.948715,595.251343 175.132462,590.311584 
	C175.382950,583.577759 174.509644,576.426453 181.517761,572.046448 
	C182.076904,571.697021 182.760635,570.958008 183.192108,571.081116 
	C190.216629,573.085815 195.971939,566.765015 202.952621,568.173767 
	C205.829468,568.754333 208.677811,568.846497 209.343872,572.458069 
	C209.658081,574.161926 210.917282,574.452148 212.307358,574.518677 
	C216.505692,574.719604 218.570816,577.125305 219.213928,581.522705 
M216.794510,588.474243 
	C216.802094,581.299988 216.802094,581.299988 212.802338,580.948181 
	C214.928467,586.607483 212.163010,592.495667 214.289124,598.656128 
	C217.094177,595.615051 216.663132,592.418640 216.794510,588.474243 
M210.919037,587.075500 
	C210.915955,586.577454 210.957062,586.074463 210.901825,585.582275 
	C210.706589,583.842224 211.349045,581.746094 209.229309,580.747864 
	C208.153137,580.241089 206.844452,580.176514 206.033768,581.251465 
	C204.817764,582.864014 205.240265,584.739990 205.655396,586.509033 
	C205.879410,587.463623 206.376785,588.360901 206.802231,589.259766 
	C207.377472,590.474976 208.491028,590.981201 209.686234,590.725342 
	C211.228821,590.395142 210.817551,588.947632 210.919037,587.075500 
M179.936203,592.708435 
	C181.626266,589.834656 178.050903,585.538391 182.925217,583.445312 
	C180.528458,582.932434 178.895233,582.922180 178.291748,585.385071 
	C177.592453,588.239014 178.307678,592.770325 179.758926,593.768127 
	C179.797653,593.608398 179.836395,593.448730 179.936203,592.708435 
M206.055069,597.331726 
	C206.445404,601.442139 209.086014,599.201233 211.101379,599.453491 
	C210.978912,597.533203 211.667404,595.623535 209.656250,594.906982 
	C208.107925,594.355408 206.766632,595.013184 206.055069,597.331726 
z"/>
<path fill="#000000" opacity="1.000000" stroke="none" 
	d="
M411.844727,631.616821 
	C417.913422,630.821228 422.219788,633.597107 423.010681,638.443298 
	C423.589508,641.990051 420.680603,646.206299 417.020630,647.125122 
	C411.997040,648.386353 407.492401,646.188599 406.259735,641.608582 
	C404.973602,636.830017 406.925690,633.549377 411.844727,631.616821 
M411.909119,641.883850 
	C413.845428,643.324402 415.618805,643.036011 417.029694,641.182617 
	C418.014282,639.889343 418.040436,638.396423 416.897339,637.131226 
	C415.765778,635.878784 414.242218,635.732666 412.846985,636.463196 
	C410.775482,637.547729 410.203583,639.252319 411.909119,641.883850 
z"/>
<path fill="#000000" opacity="1.000000" stroke="none" 
	d="
M364.357056,631.378784 
	C371.295502,633.310120 373.724854,636.854492 372.045959,642.079590 
	C370.676697,646.341003 363.630859,648.958740 358.848358,647.036194 
	C357.391235,646.450378 356.869324,645.363892 356.836365,643.938904 
	C356.790314,641.949280 356.777679,639.958496 356.783173,637.968262 
	C356.801331,631.384766 357.190094,631.028564 364.357056,631.378784 
M367.326538,640.784241 
	C368.283447,638.246277 367.270142,636.628784 364.880463,635.755188 
	C363.726349,635.333252 362.401764,635.305237 361.927551,636.658264 
	C361.320007,638.391846 361.210358,640.532776 362.248901,641.894836 
	C363.644928,643.725647 365.474304,642.718384 367.326538,640.784241 
z"/>
<path fill="#000000" opacity="1.000000" stroke="none" 
	d="
M278.637085,646.995728 
	C275.368927,645.303284 274.736237,643.063965 276.304138,640.202148 
	C276.862030,639.183960 277.582947,638.246704 277.237915,636.959290 
	C276.575775,634.488770 277.461456,632.736267 279.777863,631.693848 
	C281.810242,630.779358 283.681213,631.081909 285.343170,632.534973 
	C287.346802,634.286743 287.247131,636.269348 285.157562,638.975830 
	C290.814148,637.987305 289.373505,641.783447 289.615784,644.276123 
	C289.951904,647.733704 287.161163,646.418518 285.440613,646.789612 
	C283.304810,647.250488 281.186310,647.567993 278.637085,646.995728 
z"/>
<path fill="#000000" opacity="1.000000" stroke="none" 
	d="
M200.550781,636.830688 
	C201.249756,642.653442 199.169922,646.210449 194.866043,647.164734 
	C190.022125,648.238770 185.904495,646.099792 184.438110,641.747742 
	C183.176575,638.003662 184.940811,634.113281 188.746307,632.247620 
	C193.271347,630.029175 197.097275,631.413818 200.550781,636.830688 
M191.768860,635.766296 
	C189.482346,636.585754 188.958893,638.322937 189.385574,640.486633 
	C189.632050,641.736511 190.504028,642.494629 191.726105,642.706299 
	C193.514160,643.016052 195.116364,642.570496 195.645004,640.664612 
	C196.397095,637.953064 195.273392,636.230469 191.768860,635.766296 
z"/>
<path fill="#000000" opacity="1.000000" stroke="none" 
	d="
M235.797195,645.418457 
	C232.553787,641.885254 232.016434,638.312988 234.706207,634.749817 
	C236.858414,631.898743 239.884872,630.647156 243.514328,631.578857 
	C246.855850,632.436584 249.092590,634.571960 249.896103,637.909363 
	C250.675674,641.147339 249.473114,643.948181 246.811111,645.763489 
	C243.342087,648.129150 239.651398,648.049500 235.797195,645.418457 
M244.728088,638.124390 
	C243.825378,635.894897 242.284012,635.050720 240.060074,636.201965 
	C238.405579,637.058472 237.805252,638.571594 238.269928,640.365784 
	C238.692245,641.996338 239.899582,642.841980 241.553101,642.791382 
	C244.053009,642.714905 244.956329,641.168457 244.728088,638.124390 
z"/>
<path fill="#000000" opacity="1.000000" stroke="none" 
	d="
M395.225098,634.189331 
	C393.571838,636.562378 390.975891,634.652283 389.041595,636.022888 
	C390.522064,637.742737 394.461487,635.985046 394.203156,639.440491 
	C393.992188,642.262085 390.799774,640.624084 389.379883,641.871521 
	C389.554077,642.162415 389.650238,642.566833 389.870148,642.652161 
	C391.833801,643.413574 395.593964,642.088074 395.275146,645.445862 
	C394.975586,648.600708 391.467926,647.188599 389.388672,647.240295 
	C383.210327,647.394165 382.955505,646.946167 382.983673,639.117249 
	C383.009888,631.830139 385.921539,629.545349 392.936615,631.226135 
	C394.420563,631.581665 395.387909,632.212280 395.225098,634.189331 
z"/>
<path fill="#000000" opacity="1.000000" stroke="none" 
	d="
M323.784485,637.952026 
	C325.623016,635.545105 325.380127,630.204346 329.148438,631.809998 
	C333.026733,633.462524 329.247101,636.990112 328.205719,639.303162 
	C326.894073,642.216431 327.192627,647.195557 322.472504,646.990906 
	C318.273804,646.808899 318.459991,642.186462 317.195312,639.343994 
	C316.161530,637.020569 312.717072,633.656006 315.902954,631.979187 
	C319.742096,629.958496 319.922485,635.056702 321.534912,637.228638 
	C322.063568,637.940735 322.250793,639.330444 323.784485,637.952026 
z"/>
<path fill="#000000" opacity="1.000000" stroke="none" 
	d="
M162.422150,640.037231 
	C162.011536,631.815063 163.448090,630.280212 170.446701,631.093567 
	C172.097961,631.285461 174.128006,631.329041 174.287003,633.453003 
	C174.465820,635.841492 172.161758,635.504639 170.684601,635.953918 
	C169.924301,636.185181 169.128433,636.299500 168.273743,636.482727 
	C168.797256,638.360901 170.264984,637.602539 171.226013,637.948059 
	C172.342865,638.349487 173.597076,638.614380 173.493622,640.122986 
	C173.394226,641.572571 172.179123,641.897583 171.000046,642.085449 
	C169.550156,642.316467 167.857849,642.142639 167.412872,644.072632 
	C167.013260,645.805908 166.538361,647.486206 164.261917,646.949402 
	C162.135757,646.447998 162.275146,644.568604 162.251907,642.911621 
	C162.240295,642.085022 162.363525,641.256531 162.422150,640.037231 
z"/>
<path fill="#000000" opacity="1.000000" stroke="none" 
	d="
M213.898773,636.121460 
	C212.302872,635.220581 209.897980,635.545959 210.472305,633.001160 
	C210.886032,631.167847 212.643356,631.133728 214.126801,631.111511 
	C216.445389,631.076721 218.768814,631.153809 221.085312,631.276245 
	C222.330200,631.342041 223.379852,631.943420 223.648331,633.250122 
	C223.950714,634.721924 222.964050,635.283264 221.711349,635.608398 
	C217.721985,636.643616 219.812683,639.931091 219.307587,642.244202 
	C218.920624,644.016174 220.026810,646.862061 217.014420,646.840210 
	C214.050797,646.818787 214.971970,644.022339 214.756454,642.202759 
	C214.525528,640.253235 215.167572,638.215271 213.898773,636.121460 
z"/>
<path fill="#000000" opacity="1.000000" stroke="none" 
	d="
M341.730103,646.765198 
	C339.863739,642.382812 340.683899,638.060425 340.902374,633.825073 
	C341.027130,631.406372 342.950653,630.859253 344.826660,632.401917 
	C346.706360,633.947571 346.353058,645.046875 344.413696,646.636536 
	C343.892883,647.063416 342.862305,646.868408 341.730103,646.765198 
z"/>
</svg>