<?xml version="1.0" encoding="UTF-8"?>
<svg xmlns="http://www.w3.org/2000/svg" id="Layer_1" data-name="Layer 1" viewBox="0 0 24 24" fill="#FFFFFF">
  <path d="M5.35,19.549h-.7c-1.674,0-3.109-1.26-3.338-2.93-.129-.941-.195-2-.195-3.149s.07-2.13,.208-3.074c.239-1.628,1.67-2.856,3.33-2.856h.695v12.009Z"/>
  <path d="M19.228,22.632c-1.78,.599-5.396,.355-7.973,.045-2.091-.251-3.513-1.417-3.905-3.127V5.324s.105-1.035,.105-1.035c.19-1.874,1.754-3.288,3.638-3.288,1.038,0,2.03,.443,2.723,1.216,.692,.773,1.024,1.809,.91,2.84l-.2,1.816c1.655-.167,4.318-.322,5.491,.24,2.526,1.211,2.867,4.571,2.867,7.697,0,4.559-1.128,6.971-3.656,7.821Z"/>
</svg>
