<svg version="1.2" xmlns="http://www.w3.org/2000/svg" viewBox="0 0 306 313" width="500" height="500">
	<style>
		.s0 { fill: #000000 } 
	</style>
	<path class="s0" d="m229.38 221.63q21.48 24.9 42.32 49.07c-1.26 2.72-3.14 2.28-4.68 2.29-10.33 0.06-20.66-0.06-30.98 0.06-3.24 0.04-5.21-1.6-7.16-3.81q-28.01-31.92-56.11-63.78c-1.07-1.22-1.91-2.74-4.25-3.5-0.39 6.88-0.69 13.61-2.3 20.19-5.47 22.37-20.11 37.41-38.83 49.28-2.2 1.39-4.66 1.63-7.21 1.63-20.32-0.03-40.65 0.07-60.97-0.1-6.82-0.06-13.57-1.35-20.24-2.77-2.12-0.45-4.52-1.1-4.15-4.03 0.73-5.86 0.7-11.87 2.66-17.42 2.41-0.66 3.79 0.82 5.35 1.63 12.89 6.67 26.56 9.37 41.04 8.49 3.51-0.21 3.93-1.96 4.06-4.82 0.91-20.63 0.76-41.27 0.77-61.91q0.02-66.72-0.01-133.44c-0.01-6.94-0.33-7.23-7.38-7.3-1.84-0.02-3.67-0.09-5.5 0.01-3.37 0.18-5.83-0.29-5.83-4.67-0.01-4.33 1.7-5.8 5.97-5.78q43.48 0.16 86.96-0.02c4.14-0.02 5.49 1.52 5.44 5.61-0.18 15.83-0.07 31.65-0.08 47.48 0 1.8 0 3.59 0 6.43 6.42-4.03 10.9-8.93 15.8-13.24 16.27-14.28 32.38-28.74 48.61-43.07 6.36-5.62 13.75-2.45 20.66-2.98 0.7 2.97-1.11 3.66-2.27 4.69-25.93 22.95-51.85 45.94-77.87 68.79-3.53 3.1-5.37 6.34-5.02 11.19 0.41 5.63 0.47 11.35-0.02 16.97-0.5 5.85 1.77 10.03 5.48 14.27 18.63 21.32 37.02 42.85 55.74 64.56zm-103.27-140.13q0 27.78 0 55.56c4.65-2.48 7.79-5.41 11.16-8.05 3.13-2.45 4.47-5.31 4.39-9.41-0.35-19.65-0.44-39.3-0.56-58.95-0.06-9.48 0-9.33-9.72-9.33-3.86-0.01-5.38 1.26-5.29 5.2 0.19 7.99 0.03 15.98 0.02 24.98zm5.1 165.17c4.31-8.36 6.96-17.25 8.63-26.48 2.61-14.38 0.6-28.92 1.66-43.36 0.53-7.16-7.02-17.97-14.69-21.27 0 32.5 0 64.71 0 98.01 1.73-2.69 2.89-4.48 4.4-6.9z"/>
	<path class="s0" d="m85.21 225.52c0.04 4.28 0.15 8.11 0.02 11.93-0.23 6.44-5.08 10.59-11.36 9.31-3.74-0.76-6.88-0.61-10.51 0.94-4.76 2.03-9.8 1.62-13.98-2.18-0.49-0.45-0.9-1.23-1.45-1.33-5.61-1.03-6.98-4.94-6.8-9.88 0.25-6.73-0.62-13.88 6.39-18.26 0.56-0.35 1.24-1.09 1.67-0.97 7.03 2.01 12.78-4.31 19.76-2.91 2.88 0.58 5.73 0.68 6.39 4.29 0.32 1.7 1.58 1.99 2.97 2.06 4.2 0.2 6.26 2.61 6.9 7zm-2.42 6.95c0.01-7.17 0.01-7.17-3.99-7.52 2.13 5.66-0.64 11.55 1.49 17.71 2.8-3.04 2.37-6.24 2.5-10.19zm-5.87-1.39c0-0.5 0.04-1.01-0.02-1.5-0.19-1.74 0.45-3.83-1.67-4.83-1.08-0.51-2.39-0.57-3.2 0.5-1.21 1.61-0.79 3.49-0.37 5.26 0.22 0.95 0.72 1.85 1.14 2.75 0.58 1.21 1.69 1.72 2.89 1.47 1.54-0.33 1.13-1.78 1.23-3.65zm-30.98 5.63c1.69-2.88-1.89-7.17 2.99-9.26-2.4-0.52-4.03-0.53-4.64 1.94-0.7 2.85 0.02 7.38 1.47 8.38 0.04-0.16 0.08-0.32 0.18-1.06zm26.12 4.62c0.39 4.11 3.03 1.87 5.04 2.12-0.12-1.92 0.57-3.83-1.44-4.54-1.55-0.55-2.89 0.1-3.6 2.42z"/>
	<path class="s0" d="m277.84 275.62c6.07-0.8 10.38 1.98 11.17 6.82 0.58 3.55-2.33 7.77-5.99 8.69-5.02 1.26-9.53-0.94-10.76-5.52-1.29-4.78 0.67-8.06 5.58-9.99zm0.07 10.26c1.94 1.44 3.71 1.16 5.12-0.7 0.98-1.29 1.01-2.78-0.13-4.05-1.13-1.25-2.66-1.4-4.05-0.67-2.07 1.09-2.65 2.79-0.94 5.42z"/>
	<path class="s0" d="m230.36 275.38c6.94 1.93 9.36 5.47 7.69 10.7-1.37 4.26-8.42 6.88-13.2 4.96-1.46-0.59-1.98-1.68-2.01-3.1q-0.07-2.99-0.06-5.97c0.02-6.59 0.41-6.94 7.58-6.59zm2.97 9.4c0.95-2.53-0.06-4.15-2.45-5.02-1.15-0.43-2.48-0.45-2.95 0.9-0.61 1.73-0.72 3.87 0.32 5.23 1.39 1.84 3.22 0.83 5.08-1.11z"/>
	<path class="s0" d="m144.64 291c-3.27-1.7-3.9-3.94-2.34-6.8 0.56-1.02 1.28-1.95 0.94-3.24-0.66-2.47 0.22-4.22 2.54-5.27 2.03-0.91 3.9-0.61 5.56 0.84 2.01 1.76 1.91 3.74-0.18 6.45 5.65-0.99 4.21 2.8 4.46 5.3 0.33 3.45-2.46 2.14-4.18 2.51-2.14 0.46-4.25 0.78-6.8 0.21z"/>
	<path class="s0" d="m66.55 280.83c0.7 5.82-1.38 9.38-5.68 10.33-4.85 1.08-8.97-1.06-10.43-5.41-1.26-3.75 0.5-7.64 4.31-9.5 4.52-2.22 8.35-0.84 11.8 4.58zm-8.78-1.06c-2.29 0.82-2.81 2.55-2.38 4.72 0.24 1.25 1.11 2 2.34 2.22 1.78 0.31 3.39-0.14 3.92-2.05 0.75-2.71-0.38-4.43-3.88-4.89z"/>
	<path class="s0" d="m101.8 289.42c-3.25-3.53-3.78-7.11-1.09-10.67 2.15-2.85 5.17-4.1 8.8-3.17 3.35 0.86 5.58 2.99 6.39 6.33 0.78 3.24-0.43 6.04-3.09 7.85-3.47 2.37-7.16 2.29-11.01-0.34zm8.93-7.3c-0.9-2.23-2.45-3.07-4.67-1.92-1.65 0.86-2.25 2.37-1.79 4.17 0.42 1.63 1.63 2.47 3.28 2.42 2.5-0.08 3.41-1.62 3.18-4.67z"/>
	<path class="s0" d="m261.23 278.19c-1.66 2.37-4.25 0.46-6.19 1.83 1.48 1.72 5.42-0.03 5.16 3.42-0.21 2.82-3.4 1.18-4.82 2.43 0.17 0.29 0.27 0.7 0.49 0.78 1.96 0.76 5.72-0.56 5.41 2.8-0.3 3.15-3.81 1.74-5.89 1.79-6.18 0.15-6.43-0.29-6.41-8.12 0.03-7.29 2.94-9.57 9.96-7.89 1.48 0.35 2.45 0.98 2.29 2.96z"/>
	<path class="s0" d="m189.78 281.95c1.84-2.4 1.6-7.75 5.37-6.14 3.88 1.65 0.1 5.18-0.94 7.49-1.32 2.92-1.02 7.9-5.74 7.69-4.2-0.18-4.01-4.8-5.27-7.65-1.04-2.32-4.48-5.68-1.3-7.36 3.84-2.02 4.02 3.08 5.63 5.25 0.53 0.71 0.72 2.1 2.25 0.72z"/>
	<path class="s0" d="m28.42 284.04c-0.41-8.22 1.03-9.76 8.03-8.95 1.65 0.2 3.68 0.24 3.84 2.36 0.18 2.39-2.13 2.05-3.61 2.5-0.76 0.24-1.55 0.35-2.41 0.53 0.53 1.88 1.99 1.12 2.96 1.47 1.11 0.4 2.37 0.66 2.26 2.17-0.1 1.45-1.31 1.78-2.49 1.97-1.45 0.23-3.14 0.05-3.59 1.98-0.4 1.74-0.87 3.42-3.15 2.88-2.12-0.5-1.98-2.38-2.01-4.04-0.01-0.82 0.11-1.65 0.17-2.87z"/>
	<path class="s0" d="m79.9 280.12c-1.6-0.9-4-0.57-3.43-3.12 0.42-1.83 2.17-1.87 3.66-1.89 2.32-0.03 4.64 0.04 6.96 0.17 1.24 0.06 2.29 0.66 2.56 1.97 0.3 1.47-0.69 2.03-1.94 2.36-3.99 1.03-1.9 4.32-2.4 6.63-0.39 1.78 0.72 4.62-2.3 4.6-2.96-0.02-2.04-2.82-2.25-4.64-0.23-1.95 0.41-3.98-0.86-6.08z"/>
	<path class="s0" d="m207.73 290.77c-1.87-4.39-1.05-8.71-0.83-12.94 0.13-2.42 2.05-2.97 3.93-1.43 1.88 1.55 1.52 12.65-0.42 14.24-0.52 0.42-1.55 0.23-2.68 0.13z"/>
</svg>